<svg xmlns="http://www.w3.org/2000/svg" width="36" height="65" viewBox="0 0 36 65"><path fill="#a6114a" stroke="#ffaeb0" stroke-miterlimit="10" stroke-width="1.98" d="M32.5 64H10.2a1.4 1.4 0 0 1 1.4-1.4h9V27.7h1.5v34.9h9a1.4 1.4 0 0 1 1.4 1.4z"/><path fill="#a6114a" stroke="#ffaeb0" stroke-miterlimit="10" stroke-width="1.32" d="M35.3 32.9a14 14 0 1 1-27.9 0l3-20h21.9z"/><path fill="#a6114a" d="M12.5 6c3 15.3-6 22.6-11.7 25.1-.5.2-1.1-.5-.7-.8 5.3-4.6 9-9.8 6.7-22.7C6.7 2.9 12 3.1 12.5 6z"/><path fill="#ffaeb0" d="M12 8.5c1.4 10.1-3.4 16.7-7.7 20.1 0 0 4.3-5.1 6-9.9A37.8 37.8 0 0 0 12 8.5z"/><path fill="#a6114a" d="M8 0l2.3 2.8 3.6-.4L12 5.5l3.4 2.1-5.4.3-4.7 2L7 6.7 3.9 4.9l3.3-1.4L8 0zm24.5 64H10.2a1.4 1.4 0 0 1 1.4-1.4h9V27.7h1.5v34.9h9a1.4 1.4 0 0 1 1.4 1.4z"/></svg>