<svg xmlns="http://www.w3.org/2000/svg" width="120" height="260" viewBox="0 0 120 260"><path fill="#a6114a" d="M21.6 249.9V112.6c.7-12.4 9.6-23.4 23.1-28.3V44.2a11.1 11.1 0 0 1-3.3-7.9V21a10.9 10.9 0 0 1 10.9-10.9h15.4A10.9 10.9 0 0 1 78.6 21v15.3a11.1 11.1 0 0 1-3.3 7.9v40.1c13.5 4.9 22.4 15.9 23.1 28.3v137.3z"/><path fill="#ffaeb0" d="M67.7 11.8a9.2 9.2 0 0 1 9.2 9.2v15.3a9 9 0 0 1-3.4 7.1v42.1c13.6 4.5 23.2 15.7 23.2 28.7v134H23.3v-134c0-13 9.6-24.2 23.2-28.7V43.4a9 9 0 0 1-3.4-7.1V21a9.2 9.2 0 0 1 9.2-9.2h15.4m0-3.5H52.3A12.7 12.7 0 0 0 39.7 21v15.3a13 13 0 0 0 3.3 8.6v38.2c-13 5.2-21.6 15.7-22.9 27.8h-.2v140.8h80.2V110.9h-.2C98.6 98.8 90 88.3 77 83.1V44.9a13 13 0 0 0 3.3-8.6V21A12.7 12.7 0 0 0 67.7 8.3z"/><path fill="#fff1c9" d="M30.7 167.5a43.3 43.3 0 0 1 29.3 0 43.6 43.6 0 0 0 29.2 0v72.2H30.7z"/></svg>